<svg version="1.0" xmlns="http://www.w3.org/2000/svg" width="346.000000pt" height="346.000000pt" viewBox="0 0 346.000000 346.000000" preserveAspectRatio="xMidYMid meet">
<metadata>
Created by potrace 1.11, written by Peter Selinger 2001-2013
</metadata>
<g transform="translate(0.000000,346.000000) scale(0.100000,-0.100000)" fill="#000000" stroke="none">
<path d="M1484 3328 c8 -40 19 -53 84 -94 36 -24 52 -40 50 -52 -2 -10 -12
-16 -23 -15 -173 21 -208 16 -293 -38 -17 -12 -66 -30 -108 -40 -117 -29 -354
-149 -354 -178 0 -5 20 -6 45 -3 28 3 45 1 45 -6 0 -6 -32 -32 -70 -57 -98
-65 -105 -78 -90 -162 7 -38 20 -88 30 -113 21 -50 17 -65 -33 -117 -23 -25
-32 -46 -38 -93 -7 -49 -17 -70 -50 -112 -39 -50 -41 -55 -33 -98 4 -25 8 -95
8 -156 1 -104 3 -113 29 -151 15 -22 41 -52 58 -67 16 -14 29 -33 29 -41 0
-33 71 -189 122 -267 30 -46 82 -113 116 -149 56 -60 60 -67 47 -85 -27 -39
-155 -291 -155 -305 1 -8 45 -43 99 -79 l97 -64 -7 -47 c-4 -25 -22 -73 -40
-104 -33 -59 -38 -93 -31 -205 2 -43 -13 -179 -23 -202 -4 -10 -10 -16 -14
-14 -16 10 -39 -21 -34 -47 5 -23 9 -26 32 -20 41 12 94 9 98 -4 7 -21 -131
-17 -152 3 -12 13 -19 14 -30 4 -8 -7 -15 -19 -15 -26 0 -12 68 -14 405 -14
263 0 405 3 405 10 0 6 -83 10 -230 10 l-230 0 -11 27 c-7 20 -6 28 3 35 24
15 136 8 272 -17 167 -31 201 -31 351 0 123 25 190 30 283 18 47 -5 53 -8 50
-27 -3 -21 -8 -21 -235 -24 -198 -2 -233 -5 -233 -17 0 -13 54 -15 409 -15
406 0 409 0 404 20 -7 27 -43 48 -43 25 0 -22 -34 -19 -56 6 -15 17 -16 22 -4
29 9 6 17 5 22 -3 4 -6 10 -8 14 -4 4 4 -1 16 -11 27 -14 16 -21 18 -28 8 -6
-9 -7 -8 -3 5 3 10 0 20 -9 23 -7 3 -11 12 -8 20 3 8 0 21 -7 29 -20 24 -30
87 -17 103 6 8 11 44 11 82 -1 53 -8 82 -32 136 -28 60 -58 163 -50 168 2 1
41 19 88 40 47 21 89 42 94 46 17 17 -80 244 -135 314 l-20 25 -44 -30 c-48
-32 -188 -100 -245 -118 -19 -6 -83 -27 -142 -46 -116 -39 -236 -53 -303 -37
-39 10 -38 10 27 11 37 1 102 7 145 13 l78 13 -140 6 c-209 10 -363 60 -526
169 -192 130 -358 370 -403 587 l-7 31 78 7 c43 3 90 8 104 11 l26 5 17 -148
c11 -91 23 -157 33 -172 15 -24 16 -24 147 -18 203 9 528 54 544 75 11 13 13
54 10 179 -4 165 -3 173 33 173 5 0 9 -30 9 -67 0 -87 18 -240 30 -263 16 -29
99 -34 392 -23 222 8 270 12 292 26 l26 17 0 160 0 160 28 0 c16 0 63 3 104 6
l75 7 7 -42 c6 -40 3 -47 -49 -122 -31 -43 -51 -79 -45 -79 6 0 37 13 69 30
64 32 73 47 87 140 9 63 36 112 84 152 45 39 49 52 20 68 -11 6 -38 35 -61 66
-39 51 -42 60 -50 144 -5 49 -15 106 -24 126 -14 35 -14 39 4 58 27 29 35 69
21 110 -8 26 -24 42 -63 64 -58 33 -81 55 -95 93 -15 37 17 103 63 130 19 12
35 25 35 30 0 17 -68 9 -147 -16 -42 -13 -79 -22 -81 -20 -12 11 33 56 80 82
l52 28 -34 3 c-22 2 -52 -6 -92 -27 -32 -17 -65 -31 -73 -31 -25 0 -108 46
-155 85 -57 48 -142 85 -192 85 -46 0 -57 5 -163 76 -81 54 -192 94 -262 94
-21 0 -54 15 -99 45 -36 25 -69 45 -72 45 -2 0 -2 -14 2 -32z m-143 -641 c-13
-16 -43 -98 -38 -104 2 -2 20 11 40 29 20 18 56 44 79 56 l43 24 -48 -48 c-31
-30 -64 -79 -94 -138 l-45 -91 59 61 c45 48 84 75 178 124 66 34 130 70 143
79 32 23 183 11 261 -21 50 -20 72 -23 204 -23 143 0 149 1 166 23 l17 24 19
-44 c23 -51 167 -203 279 -295 48 -39 81 -73 82 -86 2 -12 12 -62 22 -112 11
-49 18 -91 17 -93 -4 -4 -199 50 -208 58 -4 4 -9 45 -11 91 l-3 84 -83 -1
c-82 -1 -83 -1 -112 32 -42 48 -124 84 -191 84 -49 0 -66 -7 -186 -76 -90 -52
-130 -81 -127 -90 4 -10 -2 -14 -19 -14 -24 0 -24 -2 -27 -92 -3 -87 -4 -93
-25 -96 -20 -3 -22 2 -28 75 -3 43 -8 83 -10 90 -3 9 -79 10 -307 6 -167 -3
-334 -8 -373 -12 -80 -7 -75 2 -61 -121 l7 -66 -93 -38 c-51 -21 -99 -41 -107
-44 -12 -4 -13 5 -8 49 4 30 14 76 23 102 14 42 23 51 68 74 30 15 88 63 142
117 70 71 106 118 162 212 58 100 82 130 134 172 65 53 78 62 59 39z m897
-336 c20 -10 48 -30 61 -44 l23 -25 -43 -7 c-71 -9 -389 -41 -389 -39 0 7 120
94 155 112 53 28 142 29 193 3z m216 -399 c4 -152 4 -285 1 -294 -4 -9 -14
-19 -23 -23 -9 -4 -143 -9 -298 -12 -248 -5 -281 -4 -287 10 -7 18 -24 241
-31 413 l-6 122 113 12 c61 6 184 20 272 30 88 9 181 18 206 19 l46 1 7 -278z
m-810 171 c16 -80 37 -505 26 -516 -17 -16 -580 -71 -593 -58 -5 5 -10 28 -13
52 -2 31 -1 37 4 19 5 -16 17 -26 32 -28 23 -4 421 34 469 44 13 3 21 7 18 10
-2 3 -114 -7 -247 -21 -134 -14 -247 -22 -251 -18 -10 11 -53 448 -45 468 5
13 42 15 265 15 181 0 262 3 267 11 5 8 -65 10 -260 7 -217 -3 -268 -6 -280
-18 -12 -13 -13 -33 -1 -150 8 -74 14 -151 13 -170 -1 -40 -23 141 -34 277
l-7 93 169 3 c93 1 235 4 316 5 l146 2 6 -27z m-587 -455 c-2 -13 -4 -3 -4 22
0 25 2 35 4 23 2 -13 2 -33 0 -45z m-82 -1477 c3 -5 1 -12 -5 -16 -5 -3 -10 1
-10 9 0 18 6 21 15 7z m210 -59 c-9 -9 -25 19 -24 43 0 16 2 15 15 -8 9 -16
13 -32 9 -35z m-55 9 c0 -11 -4 -9 -14 4 -8 11 -12 24 -9 28 7 11 23 -12 23
-32z m1108 17 c-2 -6 -10 -14 -16 -16 -7 -2 -10 2 -6 12 7 18 28 22 22 4z m44
-10 c-7 -7 -12 -8 -12 -2 0 14 12 26 19 19 2 -3 -1 -11 -7 -17z m83 2 c4 -6
-5 -10 -20 -10 -15 0 -24 4 -20 10 3 6 12 10 20 10 8 0 17 -4 20 -10z"></path>
<path d="M1260 2374 c-42 -23 -100 -75 -100 -89 0 -4 16 7 35 24 56 49 95 65
155 65 66 0 115 -23 214 -100 71 -57 90 -63 121 -40 16 12 6 20 -116 90 -131
74 -137 76 -199 75 -49 0 -76 -7 -110 -25z"></path>
<path d="M2070 2158 c-102 -11 -189 -25 -195 -30 -7 -7 2 -9 30 -4 104 16 474
48 489 43 15 -6 16 -32 14 -244 l-3 -238 -247 -3 c-141 -1 -248 -6 -248 -11 0
-9 469 -4 498 5 10 3 12 58 10 251 l-3 248 -80 2 c-44 0 -163 -8 -265 -19z"></path>
<path d="M1969 1961 c-62 -62 -20 -171 66 -171 27 0 44 8 66 29 62 62 20 171
-66 171 -27 0 -44 -8 -66 -29z"></path>
<path d="M1414 1940 c-60 -24 -73 -112 -25 -161 39 -38 87 -39 130 -3 26 22
31 33 31 71 0 77 -65 122 -136 93z"></path>
<path d="M1512 1343 c2 -10 32 -33 67 -52 91 -48 176 -54 255 -18 52 24 77 49
62 64 -3 3 -29 -6 -57 -21 -76 -42 -149 -39 -243 8 -81 41 -89 43 -84 19z"></path>
<path d="M933 693 c15 -2 39 -2 55 0 15 2 2 4 -28 4 -30 0 -43 -2 -27 -4z"></path>
<path d="M2388 673 c6 -2 18 -2 25 0 6 3 1 5 -13 5 -14 0 -19 -2 -12 -5z"></path>
<path d="M870 155 c-6 -8 -10 -19 -8 -24 1 -6 8 1 15 14 13 28 11 31 -7 10z"></path>
<path d="M2546 157 c3 -10 9 -15 12 -12 3 3 0 11 -7 18 -10 9 -11 8 -5 -6z"></path>
</g>
</svg>